<?xml version="1.0" standalone="no"?><!DOCTYPE svg PUBLIC "-//W3C//DTD SVG 1.1//EN" "http://www.w3.org/Graphics/SVG/1.1/DTD/svg11.dtd"><svg class="icon" width="200px" height="200.00px" viewBox="0 0 1024 1024" version="1.1" xmlns="http://www.w3.org/2000/svg"><path d="M66.56 438.272l10.24-3.072 3.072 10.24c1.024 4.096 5.12 6.144 9.216 5.12 4.096-1.024 6.144-5.12 5.12-9.216l-3.072-10.24 10.24-3.072c4.096-1.024 6.144-5.12 5.12-9.216-1.024-4.096-5.12-6.144-9.216-5.12l-10.24 3.072-3.072-10.24c-1.024-4.096-5.12-6.144-9.216-5.12-4.096 1.024-6.144 5.12-5.12 9.216l3.072 10.24-10.24 3.072c-4.096 1.024-6.144 5.12-5.12 9.216 1.024 4.096 5.12 6.144 9.216 5.12zM826.368 289.792l10.24 1.024-1.024 10.24c0 4.096 3.072 8.192 7.168 8.192 4.096 0 8.192-3.072 8.192-7.168l1.024-10.24 10.24 1.024c4.096 0 8.192-3.072 8.192-7.168 0-4.096-3.072-8.192-7.168-8.192l-10.24-1.024 1.024-10.24c0-4.096-3.072-8.192-7.168-8.192-4.096 0-8.192 3.072-8.192 7.168l-1.024 10.24-10.24-1.024c-4.096 0-8.192 3.072-8.192 7.168 0 4.096 3.072 8.192 7.168 8.192zM592.896 227.328l10.24 1.024-1.024 10.24c0 4.096 3.072 8.192 7.168 8.192 4.096 0 8.192-3.072 8.192-7.168l1.024-10.24 10.24 1.024c4.096 0 8.192-3.072 8.192-7.168 0-4.096-3.072-8.192-7.168-8.192l-10.24-1.024 1.024-10.24c0-4.096-3.072-8.192-7.168-8.192-4.096 0-8.192 3.072-8.192 7.168l-1.024 10.24-10.24-1.024c-4.096 0-8.192 3.072-8.192 7.168 0 4.096 3.072 7.168 7.168 8.192zM51.2 828.416c33.792 0-121.856 0 327.68-1.024 6.144 0 10.24-4.096 10.24-10.24s-4.096-10.24-10.24-10.24H219.136c-27.648 0-50.176-19.456-54.272-45.056h133.12l6.144 15.36c3.072 8.192 11.264 14.336 20.48 14.336h108.544c9.216 0 17.408-6.144 20.48-13.312l6.144-15.36h119.808c2.048 18.432 11.264 33.792 24.576 46.08H453.632c-6.144 0-10.24 4.096-10.24 10.24s4.096 10.24 10.24 10.24H901.12c6.144 0 10.24-4.096 10.24-10.24s-4.096-10.24-10.24-10.24h-25.6L860.16 789.504c6.144-11.264 10.24-23.552 10.24-36.864V388.096c0-9.216-3.072-18.432-8.192-26.624-2.048-3.072-4.096-5.12-6.144-7.168-9.216-9.216-20.48-13.312-33.792-13.312H324.608c-25.6 0-47.104 21.504-47.104 47.104v353.28H153.6c-6.144 0-10.24 4.096-10.24 10.24 0 22.528 9.216 41.984 24.576 56.32H51.2c-6.144 0-10.24 4.096-10.24 10.24s4.096 10.24 10.24 10.24z m686.08-112.64l20.48-16.384 91.136 108.544h-33.792l-77.824-92.16z m-31.744-2.048L691.2 696.32v-2.048c22.528-10.24 40.96-25.6 56.32-46.08l15.36 19.456-57.344 46.08z m-164.864-72.704c-40.96-52.224-31.744-126.976 20.48-167.936 21.504-17.408 48.128-25.6 73.728-25.6 35.84 0 70.656 15.36 94.208 46.08 40.96 52.224 31.744 126.976-20.48 167.936-52.224 39.936-128 30.72-167.936-20.48z m-29.696-8.192c4.096 7.168 8.192 14.336 13.312 21.504 6.144 8.192 13.312 15.36 21.504 21.504v26.624h-34.816-1.024v-69.632z m282.624 76.8l-20.48-24.576 2.048-2.048c4.096-3.072 7.168-8.192 7.168-13.312 1.024-5.12-1.024-10.24-4.096-14.336l-20.48-25.6c23.552-47.104 20.48-106.496-14.336-150.528-48.128-60.416-136.192-71.68-196.608-23.552-14.336 11.264-25.6 24.576-33.792 38.912-17.408 3.072-30.72 18.432-30.72 36.864v3.072c0 2.048 1.024 4.096 1.024 6.144l-24.576 18.432c-1.024-1.024-2.048-2.048-4.096-2.048-4.096-3.072-10.24-4.096-16.384-4.096-20.48 0-37.888 17.408-37.888 37.888s17.408 37.888 37.888 37.888 37.888-17.408 37.888-37.888c0-4.096 0-7.168-1.024-10.24 0-1.024-1.024-2.048-1.024-4.096l21.504-16.384c-1.024 14.336 1.024 29.696 5.12 44.032-5.12 3.072-9.216 9.216-9.216 16.384v81.92c0 11.264 9.216 19.456 21.504 19.456h33.792c12.288 0 21.504-9.216 21.504-19.456v-13.312c5.12 3.072 10.24 5.12 15.36 7.168v6.144c0 11.264 9.216 19.456 21.504 19.456h32.768c11.264 0 20.48-7.168 21.504-17.408l12.288-3.072 19.456 24.576c6.144 8.192 18.432 10.24 27.648 3.072l3.072-2.048 11.264 13.312H353.28V417.792h440.32v291.84z m-337.92-118.784c0 9.216-7.168 17.408-17.408 17.408-9.216 0-17.408-8.192-17.408-17.408 0-9.216 8.192-17.408 17.408-17.408 3.072 0 5.12 1.024 8.192 2.048 4.096 2.048 7.168 6.144 8.192 11.264 1.024 1.024 1.024 2.048 1.024 4.096z m-21.504 179.2H324.608c-1.024 0-1.024 0-1.024-1.024l-3.072-7.168h117.76l-4.096 8.192z m165.888-8.192h149.504l37.888 45.056h-133.12c-26.624 0-49.152-19.456-54.272-45.056z m237.568 0h11.264c-1.024 3.072-2.048 7.168-3.072 10.24l-8.192-10.24zM297.984 388.096c0-14.336 12.288-26.624 26.624-26.624h497.664c7.168 0 14.336 3.072 19.456 8.192 1.024 1.024 2.048 2.048 3.072 4.096 3.072 4.096 5.12 9.216 5.12 15.36v353.28h-29.696l-6.144-7.168v-327.68c0-6.144-4.096-10.24-10.24-10.24h-460.8c-6.144 0-10.24 4.096-10.24 10.24v333.824h-34.816V388.096zM949.248 828.416H972.8c6.144 0 10.24-4.096 10.24-10.24s-4.096-10.24-10.24-10.24h-23.552c-6.144 0-10.24 4.096-10.24 10.24s4.096 10.24 10.24 10.24z" fill="#f5c370" /><path d="M423.936 722.944h32.768c12.288 0 21.504-9.216 21.504-19.456V655.36c0-11.264-9.216-19.456-21.504-19.456h-32.768c-12.288 0-21.504 9.216-21.504 19.456v48.128c0 10.24 9.216 19.456 21.504 19.456z m-1.024-67.584h34.816v47.104H423.936h-1.024V655.36zM711.68 590.848c-2.048 5.12 1.024 11.264 7.168 13.312 5.12 2.048 11.264-1.024 13.312-7.168 10.24-31.744 3.072-66.56-17.408-92.16-19.456-24.576-48.128-38.912-79.872-38.912-6.144 0-10.24 4.096-10.24 10.24s5.12 10.24 10.24 10.24c24.576 0 48.128 11.264 63.488 30.72 15.36 20.48 20.48 48.128 13.312 73.728zM717.824 623.616c3.072-5.12 2.048-11.264-3.072-14.336s-11.264-2.048-14.336 3.072c-2.048 2.048-3.072 4.096-5.12 7.168-4.096 4.096-3.072 11.264 1.024 14.336 4.096 4.096 11.264 3.072 14.336-1.024 3.072-4.096 5.12-7.168 7.168-9.216z" fill="#f5c370" /></svg>